{"asset": {"version": "2.0"}, "scenes": [{"nodes": [0, 1, 2]}], "nodes": [{"children": [3]}, {"children": [], "translation": [1, 0, -1]}, {"children": []}, {"mesh": 4}], "meshes": [{"primitives": [{"attributes": {"POSITION": 4, "NORMAL": 5}, "indices": 3, "material": 0}]}, {"primitives": [{"attributes": {"POSITION": 1, "NORMAL": 2}, "indices": 0, "material": 1}]}, {"primitives": [{"attributes": {"POSITION": 1, "NORMAL": 2}, "indices": 0, "material": 2}]}, {"primitives": [{"attributes": {"POSITION": 1, "NORMAL": 2}, "indices": 0, "material": 3}]}, {"primitives": [{"attributes": {"POSITION": 7, "NORMAL": 8}, "indices": 6, "material": 0}]}], "buffers": [{"uri": "data:application/octet-stream;base64,", "byteLength": 17328}, {"uri": "data:application/octet-stream;base64,", "byteLength": 3504}, {"uri": "data:application/octet-stream;base64,", "byteLength": 830016}], "bufferViews": [{"buffer": 0, "byteOffset": 0, "byteLength": 5760, "target": 34963}, {"buffer": 0, "byteOffset": 5760, "byteLength": 5784, "target": 34962}, {"buffer": 0, "byteOffset": 11544, "byteLength": 5784, "target": 34962}, {"buffer": 1, "byteOffset": 0, "byteLength": 1152, "target": 34963}, {"buffer": 1, "byteOffset": 1152, "byteLength": 1176, "target": 34962}, {"buffer": 1, "byteOffset": 2328, "byteLength": 1176, "target": 34962}, {"buffer": 2, "byteOffset": 0, "byteLength": 274176, "target": 34963}, {"buffer": 2, "byteOffset": 274176, "byteLength": 277920, "target": 34962}, {"buffer": 2, "byteOffset": 552096, "byteLength": 277920, "target": 34962}], "accessors": [{"bufferView": 0, "byteOffset": 0, "componentType": 5123, "count": 2880, "type": "SCALAR", "max": [481], "min": [0]}, {"bufferView": 1, "byteOffset": 0, "componentType": 5126, "count": 482, "type": "VEC3", "max": [1.0, 1.0, 1.0], "min": [-1.0, -1.0, -1.0]}, {"bufferView": 2, "byteOffset": 0, "componentType": 5126, "count": 482, "type": "VEC3", "max": [1.0, 1.0, 1.0], "min": [-1.0, -1.0, -1.0]}, {"bufferView": 3, "byteOffset": 0, "componentType": 5123, "count": 576, "type": "SCALAR", "max": [97], "min": [0]}, {"bufferView": 4, "byteOffset": 0, "componentType": 5126, "count": 98, "type": "VEC3", "max": [0.02, 1.0, 0.02], "min": [-0.02, 0.0, -0.02]}, {"bufferView": 5, "byteOffset": 0, "componentType": 5126, "count": 98, "type": "VEC3", "max": [0.02, 1.0, 0.02], "min": [-0.02, -1.0, -0.02]}, {"bufferView": 6, "byteOffset": 0, "componentType": 5123, "count": 137088, "type": "SCALAR", "max": [23159], "min": [0]}, {"bufferView": 7, "byteOffset": 0, "componentType": 5126, "count": 23160, "type": "VEC3", "max": [0.9896373056994889, 0.05, 0.9833333333333396], "min": [-1.0, -0.05, -1.0]}, {"bufferView": 8, "byteOffset": 0, "componentType": 5126, "count": 23160, "type": "VEC3", "max": [0.9994259810722027, 1.0, 0.9986001345551675], "min": [-0.9997620989437681, 0.021811591311758367, -0.9988658286669557]}], "materials": [{"pbrMetallicRoughness": {"baseColorFactor": [0.5, 0.5, 0.5, 1.0], "metallicFactor": 0.1, "roughnessFactor": 0.4}, "doubleSided": true}, {"pbrMetallicRoughness": {"baseColorFactor": [1, 0, 0, 1.0], "metallicFactor": 0.5, "roughnessFactor": 0.1}}, {"pbrMetallicRoughness": {"baseColorFactor": [0, 0, 1, 1.0], "metallicFactor": 0.5, "roughnessFactor": 0.1}}, {"pbrMetallicRoughness": {"baseColorFactor": [0, 1, 0, 1.0], "metallicFactor": 0.5, "roughnessFactor": 0.1}}], "textures": [], "samplers": [], "images": []}