{"asset": {"version": "2.0"}, "scenes": [{"nodes": [0, 1, 2]}], "nodes": [{"children": [3, 4, 5, 6, 7, 8, 9, 10, 11, 12, 13, 14, 15, 16, 17, 18, 19, 20, 21, 22, 23, 24, 25, 26, 27, 28, 29, 30, 31, 32, 33, 34, 35, 36, 37, 38, 39, 40, 41, 42, 43, 44, 45, 46, 47, 48, 49, 50, 51, 52, 53, 54, 55, 56, 57, 58, 59, 60, 61, 62, 63, 64, 65, 66, 67, 68, 69, 70, 71, 72, 73, 74, 75, 76, 77, 78, 79, 80, 81, 82, 83, 84, 85, 86, 87, 88, 89, 90, 91, 92, 93, 94, 95, 96, 97, 98, 99, 100, 101, 102, 103, 104, 105, 106, 107, 108, 109, 110, 111, 112, 113, 114, 115, 116, 117, 118, 119, 120, 121, 122, 123, 124, 125, 126, 127, 128, 129, 130, 131, 132, 133, 134, 135, 136, 137, 138, 139, 140, 141, 142, 143, 144, 145, 146, 147, 148, 149, 150, 151, 152]}, {"children": [], "translation": [1, 0, -1]}, {"children": []}, {"mesh": 1, "translation": [-0.555555555555556, -0.864406779661017, -0.25], "scale": [0.01, 0.01, 0.01]}, {"mesh": 1, "translation": [-0.666666666666666, -0.864406779661017, 0.166666666666667], "scale": [0.01, 0.01, 0.01]}, {"mesh": 1, "translation": [-0.777777777777778, -0.898305084745763, 0], "scale": [0.01, 0.01, 0.01]}, {"mesh": 1, "translation": [-0.833333333333333, -0.830508474576271, 0.0833333333333334], "scale": [0.01, 0.01, 0.01]}, {"mesh": 1, "translation": [-0.611111111111111, -0.864406779661017, -0.333333333333333], "scale": [0.01, 0.01, 0.01]}, {"mesh": 1, "translation": [-0.388888888888889, -0.76271186440678, -0.583333333333333], "scale": [0.01, 0.01, 0.01]}, {"mesh": 1, "translation": [-0.833333333333333, -0.864406779661017, -0.166666666666667], "scale": [0.01, 0.01, 0.01]}, {"mesh": 1, "translation": [-0.611111111111111, -0.830508474576271, -0.166666666666667], "scale": [0.01, 0.01, 0.01]}, {"mesh": 1, "translation": [-0.944444444444444, -0.864406779661017, 0.25], "scale": [0.01, 0.01, 0.01]}, {"mesh": 1, "translation": [-0.666666666666666, -0.830508474576271, 0.0833333333333334], "scale": [0.01, 0.01, 0.01]}, {"mesh": 1, "translation": [-0.388888888888889, -0.830508474576271, -0.416666666666667], "scale": [0.01, 0.01, 0.01]}, {"mesh": 1, "translation": [-0.722222222222222, -0.796610169491525, -0.166666666666667], "scale": [0.01, 0.01, 0.01]}, {"mesh": 1, "translation": [-0.722222222222222, -0.864406779661017, 0.166666666666667], "scale": [0.01, 0.01, 0.01]}, {"mesh": 1, "translation": [-1, -0.966101694915254, 0.166666666666667], "scale": [0.01, 0.01, 0.01]}, {"mesh": 1, "translation": [-0.166666666666667, -0.932203389830508, -0.666666666666667], "scale": [0.01, 0.01, 0.01]}, {"mesh": 1, "translation": [-0.222222222222222, -0.830508474576271, -1], "scale": [0.01, 0.01, 0.01]}, {"mesh": 1, "translation": [-0.388888888888889, -0.898305084745763, -0.583333333333333], "scale": [0.01, 0.01, 0.01]}, {"mesh": 1, "translation": [-0.555555555555556, -0.864406779661017, -0.25], "scale": [0.01, 0.01, 0.01]}, {"mesh": 1, "translation": [-0.222222222222222, -0.76271186440678, -0.5], "scale": [0.01, 0.01, 0.01]}, {"mesh": 1, "translation": [-0.555555555555556, -0.830508474576271, -0.5], "scale": [0.01, 0.01, 0.01]}, {"mesh": 1, "translation": [-0.388888888888889, -0.76271186440678, -0.166666666666667], "scale": [0.01, 0.01, 0.01]}, {"mesh": 1, "translation": [-0.555555555555556, -0.830508474576271, -0.416666666666667], "scale": [0.01, 0.01, 0.01]}, {"mesh": 1, "translation": [-0.833333333333333, -1, -0.333333333333333], "scale": [0.01, 0.01, 0.01]}, {"mesh": 1, "translation": [-0.555555555555556, -0.76271186440678, -0.083333333333333], "scale": [0.01, 0.01, 0.01]}, {"mesh": 1, "translation": [-0.722222222222222, -0.694915254237288, -0.166666666666667], "scale": [0.01, 0.01, 0.01]}, {"mesh": 1, "translation": [-0.611111111111111, -0.796610169491525, 0.166666666666667], "scale": [0.01, 0.01, 0.01]}, {"mesh": 1, "translation": [-0.611111111111111, -0.796610169491525, -0.166666666666667], "scale": [0.01, 0.01, 0.01]}, {"mesh": 1, "translation": [-0.5, -0.830508474576271, -0.25], "scale": [0.01, 0.01, 0.01]}, {"mesh": 1, "translation": [-0.5, -0.864406779661017, -0.166666666666667], "scale": [0.01, 0.01, 0.01]}, {"mesh": 1, "translation": [-0.777777777777778, -0.796610169491525, 0], "scale": [0.01, 0.01, 0.01]}, {"mesh": 1, "translation": [-0.722222222222222, -0.796610169491525, 0.0833333333333334], "scale": [0.01, 0.01, 0.01]}, {"mesh": 1, "translation": [-0.388888888888889, -0.830508474576271, -0.166666666666667], "scale": [0.01, 0.01, 0.01]}, {"mesh": 1, "translation": [-0.5, -0.830508474576271, -0.75], "scale": [0.01, 0.01, 0.01]}, {"mesh": 1, "translation": [-0.333333333333333, -0.864406779661017, -0.833333333333333], "scale": [0.01, 0.01, 0.01]}, {"mesh": 1, "translation": [-0.666666666666666, -0.830508474576271, 0.0833333333333334], "scale": [0.01, 0.01, 0.01]}, {"mesh": 1, "translation": [-0.611111111111111, -0.932203389830508, 0], "scale": [0.01, 0.01, 0.01]}, {"mesh": 1, "translation": [-0.333333333333333, -0.898305084745763, -0.25], "scale": [0.01, 0.01, 0.01]}, {"mesh": 1, "translation": [-0.666666666666666, -0.864406779661017, -0.333333333333333], "scale": [0.01, 0.01, 0.01]}, {"mesh": 1, "translation": [-0.944444444444444, -0.898305084745763, 0.166666666666667], "scale": [0.01, 0.01, 0.01]}, {"mesh": 1, "translation": [-0.555555555555556, -0.830508474576271, -0.166666666666667], "scale": [0.01, 0.01, 0.01]}, {"mesh": 1, "translation": [-0.611111111111111, -0.898305084745763, -0.25], "scale": [0.01, 0.01, 0.01]}, {"mesh": 1, "translation": [-0.888888888888889, -0.898305084745763, 0.75], "scale": [0.01, 0.01, 0.01]}, {"mesh": 1, "translation": [-0.944444444444444, -0.898305084745763, 0], "scale": [0.01, 0.01, 0.01]}, {"mesh": 1, "translation": [-0.611111111111111, -0.796610169491525, -0.25], "scale": [0.01, 0.01, 0.01]}, {"mesh": 1, "translation": [-0.555555555555556, -0.694915254237288, -0.5], "scale": [0.01, 0.01, 0.01]}, {"mesh": 1, "translation": [-0.722222222222222, -0.864406779661017, 0.166666666666667], "scale": [0.01, 0.01, 0.01]}, {"mesh": 1, "translation": [-0.555555555555556, -0.796610169491525, -0.5], "scale": [0.01, 0.01, 0.01]}, {"mesh": 1, "translation": [-0.833333333333333, -0.864406779661017, 0], "scale": [0.01, 0.01, 0.01]}, {"mesh": 1, "translation": [-0.444444444444445, -0.830508474576271, -0.416666666666667], "scale": [0.01, 0.01, 0.01]}, {"mesh": 1, "translation": [-0.611111111111111, -0.864406779661017, -0.083333333333333], "scale": [0.01, 0.01, 0.01]}, {"mesh": 2, "translation": [0.5, 0.254237288135593, 0], "scale": [0.01, 0.01, 0.01]}, {"mesh": 2, "translation": [0.166666666666667, 0.186440677966102, 0], "scale": [0.01, 0.01, 0.01]}, {"mesh": 2, "translation": [0.444444444444444, 0.322033898305085, 0.0833333333333334], "scale": [0.01, 0.01, 0.01]}, {"mesh": 2, "translation": [-0.333333333333333, 0.0169491525423728, 0.75], "scale": [0.01, 0.01, 0.01]}, {"mesh": 2, "translation": [0.222222222222222, 0.220338983050847, 0.333333333333334], "scale": [0.01, 0.01, 0.01]}, {"mesh": 2, "translation": [-0.222222222222222, 0.186440677966102, 0.333333333333334], "scale": [0.01, 0.01, 0.01]}, {"mesh": 2, "translation": [0.111111111111111, 0.254237288135593, -0.083333333333333], "scale": [0.01, 0.01, 0.01]}, {"mesh": 2, "translation": [-0.666666666666666, -0.220338983050848, 0.666666666666667], "scale": [0.01, 0.01, 0.01]}, {"mesh": 2, "translation": [0.277777777777777, 0.220338983050847, 0.25], "scale": [0.01, 0.01, 0.01]}, {"mesh": 2, "translation": [-0.5, -0.0169491525423729, 0.416666666666667], "scale": [0.01, 0.01, 0.01]}, {"mesh": 2, "translation": [-0.611111111111111, -0.152542372881356, 1], "scale": [0.01, 0.01, 0.01]}, {"mesh": 2, "translation": [-0.111111111111111, 0.0847457627118644, 0.166666666666667], "scale": [0.01, 0.01, 0.01]}, {"mesh": 2, "translation": [-0.0555555555555556, 0.0169491525423728, 0.833333333333333], "scale": [0.01, 0.01, 0.01]}, {"mesh": 2, "translation": [-2.22044604925031e-16, 0.254237288135593, 0.25], "scale": [0.01, 0.01, 0.01]}, {"mesh": 2, "translation": [-0.277777777777778, -0.11864406779661, 0.25], "scale": [0.01, 0.01, 0.01]}, {"mesh": 2, "translation": [0.333333333333333, 0.152542372881356, 0.0833333333333334], "scale": [0.01, 0.01, 0.01]}, {"mesh": 2, "translation": [-0.277777777777778, 0.186440677966102, 0.166666666666667], "scale": [0.01, 0.01, 0.01]}, {"mesh": 2, "translation": [-0.166666666666667, 0.0508474576271185, 0.416666666666667], "scale": [0.01, 0.01, 0.01]}, {"mesh": 2, "translation": [0.0555555555555556, 0.186440677966102, 0.833333333333333], "scale": [0.01, 0.01, 0.01]}, {"mesh": 2, "translation": [-0.277777777777778, -0.0169491525423729, 0.583333333333333], "scale": [0.01, 0.01, 0.01]}, {"mesh": 2, "translation": [-0.111111111111111, 0.288135593220339, 0], "scale": [0.01, 0.01, 0.01]}, {"mesh": 2, "translation": [-2.22044604925031e-16, 0.0169491525423728, 0.333333333333334], "scale": [0.01, 0.01, 0.01]}, {"mesh": 2, "translation": [0.111111111111111, 0.322033898305085, 0.583333333333333], "scale": [0.01, 0.01, 0.01]}, {"mesh": 2, "translation": [-2.22044604925031e-16, 0.254237288135593, 0.333333333333334], "scale": [0.01, 0.01, 0.01]}, {"mesh": 2, "translation": [0.166666666666667, 0.11864406779661, 0.25], "scale": [0.01, 0.01, 0.01]}, {"mesh": 2, "translation": [0.277777777777777, 0.152542372881356, 0.166666666666667], "scale": [0.01, 0.01, 0.01]}, {"mesh": 2, "translation": [0.388888888888889, 0.288135593220339, 0.333333333333334], "scale": [0.01, 0.01, 0.01]}, {"mesh": 2, "translation": [0.333333333333333, 0.35593220338983, 0.166666666666667], "scale": [0.01, 0.01, 0.01]}, {"mesh": 2, "translation": [-0.0555555555555556, 0.186440677966102, 0.25], "scale": [0.01, 0.01, 0.01]}, {"mesh": 2, "translation": [-0.222222222222222, -0.152542372881356, 0.5], "scale": [0.01, 0.01, 0.01]}, {"mesh": 2, "translation": [-0.333333333333333, -0.0508474576271187, 0.666666666666667], "scale": [0.01, 0.01, 0.01]}, {"mesh": 2, "translation": [-0.333333333333333, -0.0847457627118644, 0.666666666666667], "scale": [0.01, 0.01, 0.01]}, {"mesh": 2, "translation": [-0.166666666666667, -0.0169491525423729, 0.416666666666667], "scale": [0.01, 0.01, 0.01]}, {"mesh": 2, "translation": [-0.0555555555555556, 0.389830508474576, 0.416666666666667], "scale": [0.01, 0.01, 0.01]}, {"mesh": 2, "translation": [-0.388888888888889, 0.186440677966102, 0.166666666666667], "scale": [0.01, 0.01, 0.01]}, {"mesh": 2, "translation": [-0.0555555555555556, 0.186440677966102, -0.166666666666667], "scale": [0.01, 0.01, 0.01]}, {"mesh": 2, "translation": [0.333333333333333, 0.254237288135593, 0.0833333333333334], "scale": [0.01, 0.01, 0.01]}, {"mesh": 2, "translation": [0.111111111111111, 0.152542372881356, 0.75], "scale": [0.01, 0.01, 0.01]}, {"mesh": 2, "translation": [-0.277777777777778, 0.0508474576271185, 0.166666666666667], "scale": [0.01, 0.01, 0.01]}, {"mesh": 2, "translation": [-0.333333333333333, 0.0169491525423728, 0.583333333333333], "scale": [0.01, 0.01, 0.01]}, {"mesh": 2, "translation": [-0.333333333333333, 0.152542372881356, 0.5], "scale": [0.01, 0.01, 0.01]}, {"mesh": 2, "translation": [-2.22044604925031e-16, 0.220338983050847, 0.166666666666667], "scale": [0.01, 0.01, 0.01]}, {"mesh": 2, "translation": [-0.166666666666667, 0.0169491525423728, 0.5], "scale": [0.01, 0.01, 0.01]}, {"mesh": 2, "translation": [-0.611111111111111, -0.220338983050848, 0.75], "scale": [0.01, 0.01, 0.01]}, {"mesh": 2, "translation": [-0.277777777777778, 0.0847457627118644, 0.416666666666667], "scale": [0.01, 0.01, 0.01]}, {"mesh": 2, "translation": [-0.222222222222222, 0.0847457627118644, 0.166666666666667], "scale": [0.01, 0.01, 0.01]}, {"mesh": 2, "translation": [-0.222222222222222, 0.0847457627118644, 0.25], "scale": [0.01, 0.01, 0.01]}, {"mesh": 2, "translation": [0.0555555555555556, 0.11864406779661, 0.25], "scale": [0.01, 0.01, 0.01]}, {"mesh": 2, "translation": [-0.555555555555556, -0.322033898305085, 0.583333333333333], "scale": [0.01, 0.01, 0.01]}, {"mesh": 2, "translation": [-0.222222222222222, 0.0508474576271185, 0.333333333333334], "scale": [0.01, 0.01, 0.01]}, {"mesh": 3, "translation": [0.111111111111111, 0.694915254237288, -0.083333333333333], "scale": [0.01, 0.01, 0.01]}, {"mesh": 3, "translation": [-0.166666666666667, 0.389830508474576, 0.416666666666667], "scale": [0.01, 0.01, 0.01]}, {"mesh": 3, "translation": [0.555555555555555, 0.661016949152542, 0.166666666666667], "scale": [0.01, 0.01, 0.01]}, {"mesh": 3, "translation": [0.111111111111111, 0.559322033898305, 0.25], "scale": [0.01, 0.01, 0.01]}, {"mesh": 3, "translation": [0.222222222222222, 0.627118644067796, 0.166666666666667], "scale": [0.01, 0.01, 0.01]}, {"mesh": 3, "translation": [0.833333333333333, 0.898305084745763, 0.166666666666667], "scale": [0.01, 0.01, 0.01]}, {"mesh": 3, "translation": [-0.666666666666666, 0.186440677966102, 0.583333333333333], "scale": [0.01, 0.01, 0.01]}, {"mesh": 3, "translation": [0.666666666666667, 0.796610169491525, 0.25], "scale": [0.01, 0.01, 0.01]}, {"mesh": 3, "translation": [0.333333333333333, 0.627118644067796, 0.583333333333333], "scale": [0.01, 0.01, 0.01]}, {"mesh": 3, "translation": [0.611111111111111, 0.728813559322034, -0.333333333333333], "scale": [0.01, 0.01, 0.01]}, {"mesh": 3, "translation": [0.222222222222222, 0.389830508474576, 0], "scale": [0.01, 0.01, 0.01]}, {"mesh": 3, "translation": [0.166666666666667, 0.457627118644068, 0.416666666666667], "scale": [0.01, 0.01, 0.01]}, {"mesh": 3, "translation": [0.388888888888889, 0.525423728813559, 0.166666666666667], "scale": [0.01, 0.01, 0.01]}, {"mesh": 3, "translation": [-0.222222222222222, 0.35593220338983, 0.583333333333333], "scale": [0.01, 0.01, 0.01]}, {"mesh": 3, "translation": [-0.166666666666667, 0.389830508474576, 0.333333333333334], "scale": [0.01, 0.01, 0.01]}, {"mesh": 3, "translation": [0.166666666666667, 0.457627118644068, 0], "scale": [0.01, 0.01, 0.01]}, {"mesh": 3, "translation": [0.222222222222222, 0.525423728813559, 0.166666666666667], "scale": [0.01, 0.01, 0.01]}, {"mesh": 3, "translation": [0.888888888888889, 0.932203389830508, -0.5], "scale": [0.01, 0.01, 0.01]}, {"mesh": 3, "translation": [0.888888888888889, 1, 0.5], "scale": [0.01, 0.01, 0.01]}, {"mesh": 3, "translation": [-0.0555555555555556, 0.35593220338983, 0.833333333333333], "scale": [0.01, 0.01, 0.01]}, {"mesh": 3, "translation": [0.444444444444444, 0.593220338983051, 0], "scale": [0.01, 0.01, 0.01]}, {"mesh": 3, "translation": [-0.277777777777778, 0.322033898305085, 0.333333333333334], "scale": [0.01, 0.01, 0.01]}, {"mesh": 3, "translation": [0.888888888888889, 0.932203389830508, 0.333333333333334], "scale": [0.01, 0.01, 0.01]}, {"mesh": 3, "translation": [0.111111111111111, 0.322033898305085, 0.416666666666667], "scale": [0.01, 0.01, 0.01]}, {"mesh": 3, "translation": [0.333333333333333, 0.593220338983051, -0.083333333333333], "scale": [0.01, 0.01, 0.01]}, {"mesh": 3, "translation": [0.611111111111111, 0.694915254237288, 0], "scale": [0.01, 0.01, 0.01]}, {"mesh": 3, "translation": [0.0555555555555556, 0.288135593220339, 0.333333333333334], "scale": [0.01, 0.01, 0.01]}, {"mesh": 3, "translation": [-2.22044604925031e-16, 0.322033898305085, 0.166666666666667], "scale": [0.01, 0.01, 0.01]}, {"mesh": 3, "translation": [0.166666666666667, 0.559322033898305, 0.333333333333334], "scale": [0.01, 0.01, 0.01]}, {"mesh": 3, "translation": [0.611111111111111, 0.627118644067796, 0.166666666666667], "scale": [0.01, 0.01, 0.01]}, {"mesh": 3, "translation": [0.722222222222222, 0.728813559322034, 0.333333333333334], "scale": [0.01, 0.01, 0.01]}, {"mesh": 3, "translation": [1, 0.830508474576271, -0.5], "scale": [0.01, 0.01, 0.01]}, {"mesh": 3, "translation": [0.166666666666667, 0.559322033898305, 0.333333333333334], "scale": [0.01, 0.01, 0.01]}, {"mesh": 3, "translation": [0.111111111111111, 0.389830508474576, 0.333333333333334], "scale": [0.01, 0.01, 0.01]}, {"mesh": 3, "translation": [-2.22044604925031e-16, 0.559322033898305, 0.5], "scale": [0.01, 0.01, 0.01]}, {"mesh": 3, "translation": [0.888888888888889, 0.728813559322034, 0.166666666666667], "scale": [0.01, 0.01, 0.01]}, {"mesh": 3, "translation": [0.111111111111111, 0.559322033898305, -0.166666666666667], "scale": [0.01, 0.01, 0.01]}, {"mesh": 3, "translation": [0.166666666666667, 0.525423728813559, 0.0833333333333334], "scale": [0.01, 0.01, 0.01]}, {"mesh": 3, "translation": [-0.0555555555555556, 0.288135593220339, 0.166666666666667], "scale": [0.01, 0.01, 0.01]}, {"mesh": 3, "translation": [0.444444444444444, 0.491525423728814, 0.0833333333333334], "scale": [0.01, 0.01, 0.01]}, {"mesh": 3, "translation": [0.333333333333333, 0.559322033898305, 0.0833333333333334], "scale": [0.01, 0.01, 0.01]}, {"mesh": 3, "translation": [0.444444444444444, 0.389830508474576, 0.0833333333333334], "scale": [0.01, 0.01, 0.01]}, {"mesh": 3, "translation": [-0.166666666666667, 0.389830508474576, 0.416666666666667], "scale": [0.01, 0.01, 0.01]}, {"mesh": 3, "translation": [0.388888888888889, 0.661016949152542, 0], "scale": [0.01, 0.01, 0.01]}, {"mesh": 3, "translation": [0.333333333333333, 0.593220338983051, -0.083333333333333], "scale": [0.01, 0.01, 0.01]}, {"mesh": 3, "translation": [0.333333333333333, 0.423728813559322, 0.166666666666667], "scale": [0.01, 0.01, 0.01]}, {"mesh": 3, "translation": [0.111111111111111, 0.35593220338983, 0.583333333333333], "scale": [0.01, 0.01, 0.01]}, {"mesh": 3, "translation": [0.222222222222222, 0.423728813559322, 0.166666666666667], "scale": [0.01, 0.01, 0.01]}, {"mesh": 3, "translation": [0.0555555555555556, 0.491525423728814, -0.166666666666667], "scale": [0.01, 0.01, 0.01]}, {"mesh": 3, "translation": [-0.111111111111111, 0.389830508474576, 0.166666666666667], "scale": [0.01, 0.01, 0.01]}], "meshes": [{"primitives": [{"attributes": {"POSITION": 4, "NORMAL": 5}, "indices": 3, "material": 0}]}, {"primitives": [{"attributes": {"POSITION": 1, "NORMAL": 2}, "indices": 0, "material": 1}]}, {"primitives": [{"attributes": {"POSITION": 1, "NORMAL": 2}, "indices": 0, "material": 2}]}, {"primitives": [{"attributes": {"POSITION": 1, "NORMAL": 2}, "indices": 0, "material": 3}]}], "buffers": [{"uri": "data:application/octet-stream;base64,", "byteLength": 17328}, {"uri": "data:application/octet-stream;base64,", "byteLength": 3504}, {"uri": "data:application/octet-stream;base64,", "byteLength": 140}], "bufferViews": [{"buffer": 0, "byteOffset": 0, "byteLength": 5760, "target": 34963}, {"buffer": 0, "byteOffset": 5760, "byteLength": 5784, "target": 34962}, {"buffer": 0, "byteOffset": 11544, "byteLength": 5784, "target": 34962}, {"buffer": 1, "byteOffset": 0, "byteLength": 1152, "target": 34963}, {"buffer": 1, "byteOffset": 1152, "byteLength": 1176, "target": 34962}, {"buffer": 1, "byteOffset": 2328, "byteLength": 1176, "target": 34962}, {"buffer": 2, "byteOffset": 0, "byteLength": 12, "target": 34963}, {"buffer": 2, "byteOffset": 12, "byteLength": 48, "target": 34962}, {"buffer": 2, "byteOffset": 60, "byteLength": 48, "target": 34962}, {"buffer": 2, "byteOffset": 108, "byteLength": 32, "target": 34962}], "accessors": [{"bufferView": 0, "byteOffset": 0, "componentType": 5123, "count": 2880, "type": "SCALAR", "max": [481], "min": [0]}, {"bufferView": 1, "byteOffset": 0, "componentType": 5126, "count": 482, "type": "VEC3", "max": [1.0, 1.0, 1.0], "min": [-1.0, -1.0, -1.0]}, {"bufferView": 2, "byteOffset": 0, "componentType": 5126, "count": 482, "type": "VEC3", "max": [1.0, 1.0, 1.0], "min": [-1.0, -1.0, -1.0]}, {"bufferView": 3, "byteOffset": 0, "componentType": 5123, "count": 576, "type": "SCALAR", "max": [97], "min": [0]}, {"bufferView": 4, "byteOffset": 0, "componentType": 5126, "count": 98, "type": "VEC3", "max": [0.02, 1.0, 0.02], "min": [-0.02, 0.0, -0.02]}, {"bufferView": 5, "byteOffset": 0, "componentType": 5126, "count": 98, "type": "VEC3", "max": [0.02, 1.0, 0.02], "min": [-0.02, -1.0, -0.02]}, {"bufferView": 6, "byteOffset": 0, "componentType": 5123, "count": 6, "type": "SCALAR", "max": [3], "min": [0]}, {"bufferView": 7, "byteOffset": 0, "componentType": 5126, "count": 4, "type": "VEC3", "max": [1, 1, 0], "min": [0, 0, 0]}, {"bufferView": 8, "byteOffset": 0, "componentType": 5126, "count": 4, "type": "VEC3", "max": [0, 0, 1], "min": [0, 0, 1]}, {"bufferView": 9, "byteOffset": 0, "componentType": 5126, "count": 4, "type": "VEC2", "max": [1, 1], "min": [0, 0]}], "materials": [{"pbrMetallicRoughness": {"baseColorFactor": [0.5, 0.5, 0.5, 1.0], "metallicFactor": 0.1, "roughnessFactor": 0.4}, "doubleSided": true}, {"pbrMetallicRoughness": {"baseColorFactor": [1, 0, 0, 1.0], "metallicFactor": 0.5, "roughnessFactor": 0.1}}, {"pbrMetallicRoughness": {"baseColorFactor": [0, 0, 1, 1.0], "metallicFactor": 0.5, "roughnessFactor": 0.1}}, {"pbrMetallicRoughness": {"baseColorFactor": [0, 1, 0, 1.0], "metallicFactor": 0.5, "roughnessFactor": 0.1}}], "textures": [], "samplers": [{"magFilter": 9729, "minFilter": 9987, "wrapS": 33648, "wrapT": 33648}], "images": []}