{"asset": {"version": "2.0"}, "scene": 0, "scenes": [{"nodes": [2]}], "nodes": [{"children": [1], "name": "Data"}, {"mesh": 10}, {"name": "Root_lorenz", "children": [0], "scale": [0.1, 0.1, 0.1]}], "meshes": [{"name": "arrow", "primitives": [{"attributes": {"POSITION": 4, "NORMAL": 5}, "indices": 3, "material": 0}]}, {"name": "Mesh for material 1", "primitives": [{"attributes": {"POSITION": 1, "NORMAL": 2}, "indices": 0, "material": 1}]}, {"name": "Mesh for material 2", "primitives": [{"attributes": {"POSITION": 1, "NORMAL": 2}, "indices": 0, "material": 2}]}, {"name": "Mesh for material 3", "primitives": [{"attributes": {"POSITION": 1, "NORMAL": 2}, "indices": 0, "material": 3}]}, {"name": "Mesh for material 4", "primitives": [{"attributes": {"POSITION": 1, "NORMAL": 2}, "indices": 0, "material": 4}]}, {"name": "Mesh for material 5", "primitives": [{"attributes": {"POSITION": 1, "NORMAL": 2}, "indices": 0, "material": 5}]}, {"name": "Mesh for material 6", "primitives": [{"attributes": {"POSITION": 1, "NORMAL": 2}, "indices": 0, "material": 6}]}, {"name": "Mesh for material 7", "primitives": [{"attributes": {"POSITION": 1, "NORMAL": 2}, "indices": 0, "material": 7}]}, {"name": "Mesh for material 8", "primitives": [{"attributes": {"POSITION": 1, "NORMAL": 2}, "indices": 0, "material": 8}]}, {"name": "Mesh for material 9", "primitives": [{"attributes": {"POSITION": 1, "NORMAL": 2}, "indices": 0, "material": 9}]}, {"primitives": [{"attributes": {"POSITION": 11, "NORMAL": 12}, "indices": 10, "material": 1}]}], "buffers": [{"byteLength": 1172876, "uri": "data:application/octet-stream;base64,"}], "bufferViews": [{"buffer": 0, "byteOffset": 0, "byteLength": 5760, "target": 34963}, {"buffer": 0, "byteOffset": 5760, "byteLength": 5784, "target": 34962}, {"buffer": 0, "byteOffset": 11544, "byteLength": 5784, "target": 34962}, {"buffer": 0, "byteOffset": 17328, "byteLength": 1152, "target": 34963}, {"buffer": 0, "byteOffset": 18480, "byteLength": 1176, "target": 34962}, {"buffer": 0, "byteOffset": 19656, "byteLength": 1176, "target": 34962}, {"buffer": 0, "byteOffset": 20832, "byteLength": 12, "target": 34963}, {"buffer": 0, "byteOffset": 20844, "byteLength": 48, "target": 34962}, {"buffer": 0, "byteOffset": 20892, "byteLength": 48, "target": 34962}, {"buffer": 0, "byteOffset": 20940, "byteLength": 32, "target": 34962}, {"buffer": 0, "byteOffset": 20972, "byteLength": 383904, "target": 34963}, {"buffer": 0, "byteOffset": 404876, "byteLength": 384000, "target": 34962}, {"buffer": 0, "byteOffset": 788876, "byteLength": 384000, "target": 34962}], "accessors": [{"bufferView": 0, "byteOffset": 0, "componentType": 5123, "count": 2880, "type": "SCALAR", "max": [481], "min": [0]}, {"bufferView": 1, "byteOffset": 0, "componentType": 5126, "count": 482, "type": "VEC3", "max": [1.0, 1.0, 1.0], "min": [-1.0, -1.0, -1.0]}, {"bufferView": 2, "byteOffset": 0, "componentType": 5126, "count": 482, "type": "VEC3", "max": [1.0, 1.0, 1.0], "min": [-1.0, -1.0, -1.0]}, {"bufferView": 3, "byteOffset": 0, "componentType": 5123, "count": 576, "type": "SCALAR", "max": [97], "min": [0]}, {"bufferView": 4, "byteOffset": 0, "componentType": 5126, "count": 98, "type": "VEC3", "max": [0.02, 1.0, 0.02], "min": [-0.02, 0.0, -0.02]}, {"bufferView": 5, "byteOffset": 0, "componentType": 5126, "count": 98, "type": "VEC3", "max": [1.0, 1.0, 1.0], "min": [-1.0, -1.0, -1.0]}, {"bufferView": 6, "byteOffset": 0, "componentType": 5123, "count": 6, "type": "SCALAR", "max": [3], "min": [0]}, {"bufferView": 7, "byteOffset": 0, "componentType": 5126, "count": 4, "type": "VEC3", "max": [1, 1, 0], "min": [0, 0, 0]}, {"bufferView": 8, "byteOffset": 0, "componentType": 5126, "count": 4, "type": "VEC3", "max": [0, 0, 1], "min": [0, 0, 1]}, {"bufferView": 9, "byteOffset": 0, "componentType": 5126, "count": 4, "type": "VEC2", "max": [1, 1], "min": [0, 0]}, {"bufferView": 10, "byteOffset": 0, "componentType": 5123, "count": 191952, "type": "SCALAR", "max": [31999], "min": [0]}, {"bufferView": 11, "byteOffset": 0, "componentType": 5126, "count": 32000, "type": "VEC3", "max": [1.001931043900906, 1.0019880565981243, 1.0019829217890075], "min": [-1.0019728260986245, -1.00199998770209, -1.0019968968955104]}, {"bufferView": 12, "byteOffset": 0, "componentType": 5126, "count": 32000, "type": "VEC3", "max": [0.9999701482670061, 0.9999996515011771, 0.9999233055047123], "min": [-0.9999701482670061, -0.9999996515011771, -0.9999233055047123]}], "materials": [{"name": "grey", "pbrMetallicRoughness": {"baseColorFactor": [0.5, 0.5, 0.5, 1.0], "metallicFactor": 0.1, "roughnessFactor": 0.4}, "doubleSided": true}, {"name": "Material for color (0.891, 0.102, 0.109)", "pbrMetallicRoughness": {"baseColorFactor": [0.891, 0.102, 0.109, 1.0], "metallicFactor": 0.5, "roughnessFactor": 0.1}, "emissiveFactor": [0.2673, 0.030599999999999995, 0.0327]}, {"name": "Material for color (0.215, 0.492, 0.719)", "pbrMetallicRoughness": {"baseColorFactor": [0.215, 0.492, 0.719, 1.0], "metallicFactor": 0.5, "roughnessFactor": 0.1}, "emissiveFactor": [0.0645, 0.14759999999999998, 0.21569999999999998]}, {"name": "Material for color (0.301, 0.684, 0.289)", "pbrMetallicRoughness": {"baseColorFactor": [0.301, 0.684, 0.289, 1.0], "metallicFactor": 0.5, "roughnessFactor": 0.1}, "emissiveFactor": [0.09029999999999999, 0.20520000000000002, 0.08669999999999999]}, {"name": "Material for color (0.594, 0.305, 0.637)", "pbrMetallicRoughness": {"baseColorFactor": [0.594, 0.305, 0.637, 1.0], "metallicFactor": 0.5, "roughnessFactor": 0.1}, "emissiveFactor": [0.1782, 0.0915, 0.1911]}, {"name": "Material for color (0.996, 0.496, 0)", "pbrMetallicRoughness": {"baseColorFactor": [0.996, 0.496, 0, 1.0], "metallicFactor": 0.5, "roughnessFactor": 0.1}, "emissiveFactor": [0.2988, 0.1488, 0.0]}, {"name": "Material for color (0.996, 0.996, 0.199)", "pbrMetallicRoughness": {"baseColorFactor": [0.996, 0.996, 0.199, 1.0], "metallicFactor": 0.5, "roughnessFactor": 0.1}, "emissiveFactor": [0.2988, 0.2988, 0.0597]}, {"name": "Material for color (0.648, 0.336, 0.156)", "pbrMetallicRoughness": {"baseColorFactor": [0.648, 0.336, 0.156, 1.0], "metallicFactor": 0.5, "roughnessFactor": 0.1}, "emissiveFactor": [0.1944, 0.1008, 0.0468]}, {"name": "Material for color (0.965, 0.504, 0.746)", "pbrMetallicRoughness": {"baseColorFactor": [0.965, 0.504, 0.746, 1.0], "metallicFactor": 0.5, "roughnessFactor": 0.1}, "emissiveFactor": [0.2895, 0.1512, 0.2238]}, {"name": "Material for color (0.598, 0.598, 0.598)", "pbrMetallicRoughness": {"baseColorFactor": [0.598, 0.598, 0.598, 1.0], "metallicFactor": 0.5, "roughnessFactor": 0.1}, "emissiveFactor": [0.17939999999999998, 0.17939999999999998, 0.17939999999999998]}], "textures": [{"sampler": 0, "source": 0}], "samplers": [{"magFilter": 9729, "minFilter": 9987, "wrapS": 33648, "wrapT": 33648}], "images": [{"uri": "data:image/png;base64,"}], "extensionsUsed": ["KHR_texture_transform"], "extensionsRequired": ["KHR_texture_transform"]}