{"asset": {"version": "2.0"}, "scenes": [{"nodes": [0, 1, 2]}], "nodes": [{"children": [3, 4, 5, 6, 7, 8, 9, 10, 11, 12]}, {"children": [], "translation": [1, 0, -1]}, {"children": []}, {"mesh": 1, "translation": [-0.9635865156380028, 0.9466008967162836, -0.41207773019616845], "scale": [0.01, 0.01, 0.01]}, {"mesh": 1, "translation": [-0.9021032898202059, 0.8167192498266422, -0.40226311610661014], "scale": [0.01, 0.01, 0.01]}, {"mesh": 1, "translation": [-1.0, 0.9121079863662229, -0.4398564410130892], "scale": [0.01, 0.01, 0.01]}, {"mesh": 1, "translation": [-0.947669646648774, 1.0, -0.4948843452132785], "scale": [0.01, 0.01, 0.01]}, {"mesh": 1, "translation": [-0.7180949779995924, 0.7667672487794366, -0.24922194377955842], "scale": [0.01, 0.01, 0.01]}, {"mesh": 1, "translation": [-0.5624662951951669, 0.7016585623978004, -0.04958338319733979], "scale": [0.01, 0.01, 0.01]}, {"mesh": 1, "translation": [0.060585083719926436, 0.5458228877024915, -1.0], "scale": [0.01, 0.01, 0.01]}, {"mesh": 1, "translation": [1.0, -0.4922523220073839, -0.19175128113059436], "scale": [0.01, 0.01, 0.01]}, {"mesh": 1, "translation": [-0.0038900010924707296, -1.0, 1.0], "scale": [0.01, 0.01, 0.01]}, {"mesh": 1, "translation": [-0.9396307625399221, 0.9121441761329621, -0.42286902506545965], "scale": [0.01, 0.01, 0.01]}], "meshes": [{"primitives": [{"attributes": {"POSITION": 4, "NORMAL": 5}, "indices": 3, "material": 0}]}, {"primitives": [{"attributes": {"POSITION": 1, "NORMAL": 2}, "indices": 0, "material": 1}]}, {"primitives": [{"attributes": {"POSITION": 1, "NORMAL": 2}, "indices": 0, "material": 2}]}, {"primitives": [{"attributes": {"POSITION": 1, "NORMAL": 2}, "indices": 0, "material": 3}]}], "buffers": [{"uri": "data:application/octet-stream;base64,", "byteLength": 17328}, {"uri": "data:application/octet-stream;base64,", "byteLength": 3504}, {"uri": "data:application/octet-stream;base64,", "byteLength": 140}], "bufferViews": [{"buffer": 0, "byteOffset": 0, "byteLength": 5760, "target": 34963}, {"buffer": 0, "byteOffset": 5760, "byteLength": 5784, "target": 34962}, {"buffer": 0, "byteOffset": 11544, "byteLength": 5784, "target": 34962}, {"buffer": 1, "byteOffset": 0, "byteLength": 1152, "target": 34963}, {"buffer": 1, "byteOffset": 1152, "byteLength": 1176, "target": 34962}, {"buffer": 1, "byteOffset": 2328, "byteLength": 1176, "target": 34962}, {"buffer": 2, "byteOffset": 0, "byteLength": 12, "target": 34963}, {"buffer": 2, "byteOffset": 12, "byteLength": 48, "target": 34962}, {"buffer": 2, "byteOffset": 60, "byteLength": 48, "target": 34962}, {"buffer": 2, "byteOffset": 108, "byteLength": 32, "target": 34962}], "accessors": [{"bufferView": 0, "byteOffset": 0, "componentType": 5123, "count": 2880, "type": "SCALAR", "max": [481], "min": [0]}, {"bufferView": 1, "byteOffset": 0, "componentType": 5126, "count": 482, "type": "VEC3", "max": [1.0, 1.0, 1.0], "min": [-1.0, -1.0, -1.0]}, {"bufferView": 2, "byteOffset": 0, "componentType": 5126, "count": 482, "type": "VEC3", "max": [1.0, 1.0, 1.0], "min": [-1.0, -1.0, -1.0]}, {"bufferView": 3, "byteOffset": 0, "componentType": 5123, "count": 576, "type": "SCALAR", "max": [97], "min": [0]}, {"bufferView": 4, "byteOffset": 0, "componentType": 5126, "count": 98, "type": "VEC3", "max": [0.02, 1.0, 0.02], "min": [-0.02, 0.0, -0.02]}, {"bufferView": 5, "byteOffset": 0, "componentType": 5126, "count": 98, "type": "VEC3", "max": [0.02, 1.0, 0.02], "min": [-0.02, -1.0, -0.02]}, {"bufferView": 6, "byteOffset": 0, "componentType": 5123, "count": 6, "type": "SCALAR", "max": [3], "min": [0]}, {"bufferView": 7, "byteOffset": 0, "componentType": 5126, "count": 4, "type": "VEC3", "max": [1, 1, 0], "min": [0, 0, 0]}, {"bufferView": 8, "byteOffset": 0, "componentType": 5126, "count": 4, "type": "VEC3", "max": [0, 0, 1], "min": [0, 0, 1]}, {"bufferView": 9, "byteOffset": 0, "componentType": 5126, "count": 4, "type": "VEC2", "max": [1, 1], "min": [0, 0]}], "materials": [{"pbrMetallicRoughness": {"baseColorFactor": [0.5, 0.5, 0.5, 1.0], "metallicFactor": 0.1, "roughnessFactor": 0.4}, "doubleSided": true}, {"pbrMetallicRoughness": {"baseColorFactor": [1, 0, 0, 1.0], "metallicFactor": 0.5, "roughnessFactor": 0.1}}, {"pbrMetallicRoughness": {"baseColorFactor": [0, 0, 1, 1.0], "metallicFactor": 0.5, "roughnessFactor": 0.1}}, {"pbrMetallicRoughness": {"baseColorFactor": [0, 1, 0, 1.0], "metallicFactor": 0.5, "roughnessFactor": 0.1}}], "textures": [], "samplers": [{"magFilter": 9729, "minFilter": 9987, "wrapS": 33648, "wrapT": 33648}], "images": []}